# xmcd
#
# Track frame offsets: 
#        150
#        14407
#        28363
#        41409
#        55654
#        70586
#        84026
#        98733
#        112874
#        128201
#        141992
#
# Disc length: 2117 seconds
#
# Revision: 0
# Processed by: cddbd v1.5.2PL0 Copyright (c) Steve Scherf et al.
# Submitted via: ExactAudioCopy v1.0b3
#
DISCID=8608430b
DTITLE=Bessie Smith - Empress of the Blues - CDD
DYEAR=1900
DGENRE=Blues
TTITLE0=Lady Luck Blues: Test
TTITLE1=Yodelin' Blues: Test
TTITLE2=Midnight Blues: Test
TTITLE3=St. Louis Gal: Test
TTITLE4=Frosty Mornin': Test
TTITLE5=Yellow Dog Blues: Test
TTITLE6=Soft Pedal - 2
TTITLE7=Nashville Women's Blues - 3
TTITLE8=Careless Love - 2
TTITLE9=Muddy Water (Mississippi Moan) - 2
TTITLE10=See If I Care: Test
EXTD=
EXTT0=
EXTT1=
EXTT2=
EXTT3=
EXTT4=
EXTT5=
EXTT6=
EXTT7=
EXTT8=
EXTT9=
EXTT10=
PLAYORDER=
